<?xml version="1.0" standalone="no"?>
<!DOCTYPE svg PUBLIC "-//W3C//DTD SVG 20010904//EN"
 "http://www.w3.org/TR/2001/REC-SVG-20010904/DTD/svg10.dtd">
<svg version="1.0" xmlns="http://www.w3.org/2000/svg"
 width="512.000000pt" height="512.000000pt" viewBox="0 0 512.000000 512.000000"
 preserveAspectRatio="xMidYMid meet">

<g transform="translate(0.000000,512.000000) scale(0.100000,-0.100000)"
fill="#000000" stroke="none">
<path d="M1860 4093 c-72 -38 -112 -100 -117 -181 -3 -40 2 -68 14 -94 10 -22
254 -284 567 -612 301 -316 547 -578 546 -582 -2 -5 -247 -244 -545 -531 -574
-552 -575 -553 -575 -644 0 -153 176 -259 308 -187 58 33 1296 1221 1319 1267
23 46 23 144 0 187 -27 52 -1285 1361 -1326 1380 -64 31 -128 30 -191 -3z"/>
<path d="M3150 4105 c-100 -32 -161 -141 -139 -246 14 -63 -10 -37 619 -694
283 -295 515 -541 515 -545 0 -4 -243 -241 -541 -528 -356 -343 -547 -533
-560 -559 -28 -58 -24 -140 10 -197 56 -96 189 -132 282 -76 23 14 325 296
672 628 671 642 662 632 662 728 0 66 -23 110 -98 189 -656 685 -1222 1265
-1251 1282 -48 30 -114 36 -171 18z"/>
<path d="M572 4089 c-126 -63 -154 -222 -59 -336 23 -27 274 -292 557 -588
283 -296 515 -541 515 -545 0 -4 -243 -241 -541 -528 -356 -343 -547 -533
-560 -559 -28 -58 -24 -140 10 -197 56 -96 189 -132 282 -76 23 14 325 296
672 628 489 468 634 612 646 643 21 52 20 125 -3 174 -12 25 -246 277 -644
693 -344 359 -636 661 -649 671 -63 47 -154 55 -226 20z"/>
</g>
</svg>
